<svg version="1" xmlns="http://www.w3.org/2000/svg" width="625.333" height="625.333" viewBox="0 0 469.000000 469.000000"><path d="M354 46.6c-52.8 2.6-88.2 6.8-160 19-59.8 10.2-84.9 14-106 16.3-10.7 1.2-21.6 2.4-24.2 2.7-6.8.8-10.7 3.9-14.6 11.4l-3.3 6.5.6 12c3.2 61.5 7.1 92.2 24 189 5.4 30.6 10.8 68.1 12.9 88.7 1.6 16.3 3 20.3 8.2 24.3 7 5.4 9.7 5.7 33.4 4.5 49.4-2.6 83.7-6.9 162.5-20.5 50.7-8.7 72.7-12.1 95-14.5 26.9-2.9 26.7-2.9 30.2-5 1.8-1 4.6-4.3 6.2-7.2 3-5.1 3.1-5.8 3.1-17.5 0-37.7-5.8-87.6-20-170.3-10-58.5-12.3-73.1-14.9-95.5-3.7-32-3.7-32.1-6.1-35.3-4.8-6.5-13.4-9.2-27-8.6zm-164.6 81.3c.3.4 2.9 1.1 5.7 1.5 2.8.4 5.8 1.1 6.7 1.5 1 .5 4 1.3 6.7 1.9 2.8.6 6.8 1.5 9 2.2 2.2.6 6.5 1.7 9.5 2.5 3 .7 7.2 1.9 9.3 2.5 5.2 1.5 6.8.8 6.5-3.2-.3-3.7 1.4-4.5 9.5-4.7 2.6-.1 5.5-.5 6.5-1.1 1.5-.9 14-2.3 32.9-3.6l7.2-.6 1 3.9c2.1 8 5.3 30.8 7.2 51.8 1.1 12.5.5 37.8-1 43-.5 1.6-1.7 5.7-2.6 9-1.6 5.8-5.2 13-7.8 15.7-3.7 3.9-4.9 7.1-4.4 12.1 4.2 43.2 5.2 51 7.2 59.4 3.8 15.1 9.5 19.8 26.8 21.8 3.1.3 5.7 1 5.7 1.3 0 1.6-9.5 4.6-19.5 6.2-2.7.4-7.9 1.3-11.5 1.9-7.8 1.3-37 1.5-37 .2 0-.5 1.5-1.4 3.3-2.1 15-5.5 19.6-9.5 22.3-19 1.8-6.5 1.9-4.9-1.7-33.5-4.3-34.6-6.1-43.5-9.1-43.5-.4 0-3-2.2-5.7-4.9-5.5-5.4-11.6-14.4-12.7-18.5-.3-1.4-1-2.9-1.5-3.2-.5-.3-.9-1.2-.9-2.1 0-.8-.6-2.9-1.4-4.6-4.3-10.1-9.5-37.8-12.2-66-1-10.2-2.2-9.2-5 4.4-3.4 16.5-5.6 25.4-9 36.4-2.9 9.2-4.5 13.5-9.2 24.5-1.1 2.5-2.1 5-2.3 5.5-.2.6-2.4 4.3-4.8 8.3-4.6 7.6-12.2 15.9-16.9 18.3-1.5.8-3.3 2-4 2.6-.7.7-1.7 1.3-2.1 1.3-1 0-4.1 7.3-4.8 11.5-.3 1.9-1 3.8-1.4 4.1-.5.3-.9 1.4-.9 2.4 0 1.1-.6 3.9-1.4 6.2-1.3 4.2-2.7 9.6-6.1 22.8-.9 3.6-2.2 8.2-2.8 10.4-1.6 5.5-1.6 21.8.1 22.3.6.3 1.2 1.1 1.2 1.8 0 2 6.4 7.2 12.4 10 3 1.4 5.9 3.2 6.6 4 1.1 1.3.1 1.5-7.2 1.5-4.6 0-11-.7-14.1-1.5-3.2-.8-6.9-1.5-8.2-1.5-1.3 0-2.6-.4-2.9-.9-.3-.5-2.6-1.2-5.1-1.5-2.4-.4-4.7-1.1-5-1.7-.4-.5-1.8-.9-3.2-.9-3.9 0-18.7-6.8-18.5-8.5.1-.6 4.7-1.2 10.4-1.5 8.9-.4 10.8-.8 13.8-3 5.1-3.5 5.6-4.1 7.9-9.6 4.1-9.2 5.5-13.2 7.1-20.5 1.6-7.2 3.6-15.3 4.2-16.9.9-2.1 2.7-11 4.4-21.5 1.2-7.2 1.2-9.5.2-12-.6-1.6-1.4-3.2-1.7-3.5-.3-.3-1.4-2.1-2.3-4-6.5-13.4-6.3-35.6.6-68.5 2.8-13.3 3.7-17 4.6-18.7.6-1 1-2.5 1-3.4 0-1.5 2.2-9 4.1-13.9.4-1.1 1-3.4 1.4-5 .8-3.9 2.8-8.5 3.7-8.5.4 0 .9.4 1.2.9z"/></svg>